/* XPM */
static char *out[] = {
/* columns rows colors chars-per-pixel */
"50 50 226 2 ",
"   c #030502",
".  c #060A04",
"X  c #090C06",
"o  c #070708",
"O  c #070B09",
"+  c #0B0E09",
"@  c #120C06",
"#  c #120F09",
"$  c #0E1007",
"%  c #0E110B",
"&  c #11130D",
"*  c #17160C",
"=  c #1C150D",
"-  c #1D180E",
";  c #0E1211",
":  c #141611",
">  c #161812",
",  c #1B1B14",
"<  c #1C1E18",
"1  c #20150C",
"2  c #231A0E",
"3  c #2B1C0F",
"4  c #241D12",
"5  c #2B1E11",
"6  c #231F18",
"7  c #1F2017",
"8  c #1F211A",
"9  c #232116",
"0  c #2C2213",
"q  c #25241A",
"w  c #2B261A",
"e  c #2F2A1C",
"r  c #332413",
"t  c #3B2312",
"y  c #362815",
"u  c #3C2A14",
"i  c #332A1B",
"p  c #3C2B1A",
"a  c #38301C",
"s  c #262A26",
"d  c #332D21",
"f  c #3D2F20",
"g  c #363124",
"h  c #432513",
"j  c #432C14",
"k  c #4C2C14",
"l  c #442F1A",
"z  c #552F12",
"x  c #4C3316",
"c  c #493417",
"v  c #45321B",
"b  c #4C341B",
"n  c #533315",
"m  c #5C3415",
"M  c #563916",
"N  c #533519",
"B  c #5B3519",
"V  c #553A1B",
"C  c #5B3C1A",
"Z  c #623615",
"A  c #643817",
"S  c #6A3A16",
"D  c #623B1B",
"F  c #6C3D1A",
"G  c #753E1A",
"H  c #443422",
"J  c #4A3B26",
"K  c #553B22",
"L  c #5A3E23",
"P  c #5A3B25",
"I  c #493F31",
"U  c #603C22",
"Y  c #5B401E",
"T  c #64411C",
"R  c #6B431C",
"E  c #74421B",
"W  c #744B1E",
"Q  c #7B4B1E",
"!  c #5D4125",
"~  c #58442B",
"^  c #4A4235",
"/  c #534931",
"(  c #594B36",
")  c #654523",
"_  c #6A4524",
"`  c #6E4A24",
"'  c #634529",
"]  c #6A462C",
"[  c #644B2A",
"{  c #6C4C2C",
"}  c #754423",
"|  c #734B24",
" . c #7D4923",
".. c #7C4C22",
"X. c #744F2B",
"o. c #6C5229",
"O. c #755225",
"+. c #7D5124",
"@. c #75512C",
"#. c #7B532C",
"$. c #644B35",
"%. c #6A5437",
"&. c #745133",
"*. c #7A5634",
"=. c #7D5B3B",
"-. c #77663A",
";. c #53514F",
":. c #6C5741",
">. c #7A6744",
",. c #7E7151",
"<. c #596B78",
"1. c #797161",
"2. c #81461D",
"3. c #814A1E",
"4. c #98571F",
"5. c #854C22",
"6. c #824924",
"7. c #8C4E23",
"8. c #924E23",
"9. c #994F24",
"0. c #825323",
"q. c #8C5324",
"w. c #8C5B25",
"e. c #87562B",
"r. c #945223",
"t. c #9A5525",
"y. c #935D27",
"u. c #985A2A",
"i. c #825C36",
"p. c #8A5D32",
"a. c #845D3A",
"s. c #895D38",
"d. c #985F31",
"f. c #A45A25",
"g. c #A55C26",
"h. c #976326",
"j. c #95642E",
"k. c #9D652B",
"l. c #8D6135",
"z. c #84623B",
"x. c #8B6639",
"c. c #8B643C",
"v. c #94653A",
"b. c #95693D",
"n. c #9C6C3A",
"m. c #AC6226",
"M. c #A6662E",
"N. c #AB642A",
"B. c #A36B2C",
"V. c #AA6E2D",
"C. c #B46A28",
"Z. c #BB7229",
"A. c #A86835",
"S. c #AC7332",
"D. c #AA713C",
"F. c #B37435",
"G. c #BC7533",
"H. c #B97936",
"J. c #B47C3B",
"K. c #BC7C3C",
"L. c #C4792D",
"P. c #C8792C",
"I. c #C27D37",
"U. c #A85B46",
"Y. c #886846",
"T. c #956B44",
"R. c #956D46",
"E. c #87704B",
"W. c #9A7248",
"Q. c #9D744C",
"!. c #88785A",
"~. c #987556",
"^. c #A37547",
"/. c #A57A4C",
"(. c #AC7B4D",
"). c #B77842",
"_. c #A47D51",
"`. c #A97E54",
"'. c #BA823C",
"]. c #CD822D",
"[. c #C88538",
"{. c #D28A37",
"}. c #958154",
"|. c #BD8542",
" X c #BA8745",
".X c #BC844B",
"XX c #BE8B4A",
"oX c #A3815B",
"OX c #A88558",
"+X c #B68A5D",
"@X c #9A8F77",
"#X c #AD906A",
"$X c #B89466",
"%X c #C28C45",
"&X c #C98845",
"*X c #C48B4B",
"=X c #CB8E4A",
"-X c #C5924B",
";X c #CA954E",
":X c #CA9452",
">X c #CD9C54",
",X c #C69559",
"<X c #CD9D5B",
"1X c #CFA15F",
"2X c #DDA25D",
"3X c #C59C6B",
"4X c #D6AA62",
"5X c #D5AC6C",
"6X c #D8AD69",
"7X c #C9A67B",
"8X c #D9B477",
"9X c #E1B379",
"0X c #6F7C89",
"qX c #8D8582",
"wX c #CAB189",
"eX c #DFBC83",
"rX c #E3BD80",
"tX c #C3BCA9",
"yX c #E4C18C",
"uX c #E1C397",
"iX c #DAC8A3",
"pX c #E6D5AC",
"aX c #ECD7B2",
"sX c #EAD9B6",
"dX c #EEE0BB",
"fX c #F1E5CD",
/* pixels */
"+ + & & & : : & & + + $ + + % % % + % % 7 % % % % % % % & % : > & % % % + X % % % % % % % 7 $ % % % ",
": + + X + O & & + & + + X + & % % % % % > $ X % % % X % X + % % & % $ $ $ + % % % + % % % : $ X % % ",
"& & : : e & + X X O O O . o o . . o . . . . > & % & % : : 9 , + X X X o X . o o . . o . . . X > : % ",
"& & % ; q X & % + * w H ~ ~ J 7 .     . . % > > % & % : % 9 + & % % % & % & * > +       . X $ : : $ ",
"& % : , > # : & e `.(.D.D.K.I.).z.2 . X % $ % % % & % > , 4 X > & & % % ; # : % % O   . X % $ % % % ",
"% : , , + & & I (.d.7.E F ..7.u.N.'.p.i % % % % % % : < < + % & % : > & ; ; + ; % , X X + $ % % $ % ",
"& & : : % 9 0 (.e.E m m z k z m 3.f.G.F.f % % ; * q s > : % 7 * + f ^ % + + & % % > + X . . % % & % ",
"< + + + + # E.M.F D _ *.#.D k j A Q M.G.h.] ;.0X:.wX<.& X % % % 0 a.%.& & & + + + O % + . . . . % > ",
": + % % % q .X6.D { ~._.$X_.X.k k S u.G #.~.qX;.0XX.V I & $ & Y <X8Xg % % % : > , , , % % % : & % > ",
"> o + + + f *X6.} Y.z.( Y.wX3X0.k B  .t.U.#.( d tXs.C.C.4.3.'.yXwX,.> % X % % % & + % % % : % % % % ",
"& o       w ). .` W.Y.a - 4 ^ $X} z G 9.9.[.6X%X).V.L.[.>X$X( a % 1., o       . X &   % % % % + O % ",
":   o o + 4 *X5.} v.7X!.      o _ k F 7.+XpXsX}.#XoXoX!./ % % % : < % +     .         % % % & % % % ",
"%   + + + + `.N.q.r.).wX8 ; o O b z F (.iXaX#X-.>.o.+ + . % + % + + * # % % . X . . .   + # % + + % ",
"% . % + + % i ).g.9.9.`.wXd # # ! m E A.dXE.c 3 y @.-.( * % % % + & +     . X $ % X . @ * X & . . + ",
"    + X + X X %.K.f.g.u.A.`.; ; V m 7.C.7Xj + 5 C u.iXfXtX> X X O     . & , : % % % X . % & * X ; O ",
"> % X o   o     H ).N.f.e.&.; < T n f.t.6.q + B 5.L.,XsXfXq           $ % & % % , * $ X X % < + % : ",
"$ & X X $ X X .   = ! *.( , % % | m g.8.h & % P e.C.G.uXpXg O O .     + & & % % & % % % % % & X + % ",
"% & % % % $ $ X . . : & & % % % e.Z m.G 5 X X *.U m.C.4XsX@Xq + X .   * & % & % % : % & & % % X + + ",
"$ & + $ & X X X   + & X X & % : +.Z g.S #   X 0 5 m Z.L.9XdXiX1.+ . . & X X % % & & 8 < : % . o & % ",
". X   . . o % + X X X X .       e.S C.N   . . X 2 X M.P.{.2XrXpX@Xw X o X . .               . . . X ",
", q % % + O . > > % X o .   . . | A Z.m . $ & # 2 7 =.{.P.].{.:X:X3X0 & X X     .   . . . . % % + & ",
"% % % % % % % % & & % % O . . + 0 V.E k.+ % & $ 2 % oXG.P.Z.g.g.m.P.[.F.j.T o X + X O + . . & % % + ",
"% + & % % % % % % % X % + + . % % ~ y.Q v.n - & 2 d H.q.7.t.f.N.&X&X{.=X&XI.j X % % % % & % % % + & ",
"  . . o       o o   % % % % , $ X % i '.r.m R 8.S #.:Xu.S 8.f.I.&X*X=XG.N.M.k > . $ + . % > X       ",
"+ + + & : + * + % X $ X X % & : + + ; i J V Y.=.&.T I.N.3.Q A.G.G.G.V.r.5.F - : % % $ % > 7 % + o O ",
"; ; & & & : & & % % X % X % % % % % % 9 n.OXY.z.o.p Q y.w.} e.5.9.2.8.G B # + % % % % % % 8 % & % & ",
": O . o + X * + % $ X % X % : % % % % >.b.Q.Y.W.O.V j.w.Q m n A 2.7.G h 5 X @ : % % % % % 7 & . X & ",
"& ; * : 9 & & + + X X X o . X o o O ( (.OX_.W.*.) Y v S.|. X Xp.m k h 3 3 o X o . . X X . . . > & & ",
"& % % & w + + o + + % + % : : +   . x.x.(.Q.R.z.O.Y u z.:X6X5X<X.X) t t 5 + % > +       . . % & & & ",
"& % : > , + & & % % % % ; % ; % . = oX/.OXQ.+X3Xo.Y 9 Y -X6XrX8X5X,Xn.z b : % ; ; O   . . $ $ % % % ",
"& & < < X % & & & & % ; % : % : & y e.x.+XQ.T.#.Y u 0 c  X4X8XuXeX5X:X^._ 2 & % % : . . % % % % % % ",
"& & : : % q * + + % ; % + % : & < O.p./.x.x.T.=.Y c y Y XX4X6X8X8X5X1X*X^.U , % > 7 X . $ X $ $ % % ",
"> + % X % $ % % & % % & & % X o + ` O.l.b./.+XL K 0 0 n.XX1X4X4X4X1X>X X).l.N = o o & o .   O X o : ",
"> + % & % % % % % $ % % & > > , , [ W p.W.i.a.' D 9 y j.'.;X1X>X>X-X-X'.J.v.) r , > , + # % & & : : ",
": X + X % X + & . $ $ X + # % % 4 T b.#.X.0.`.i.n 0 u V.'.-X>X;XXX[.'.'.S.v.&.0 1 1 * + + ; % + + : ",
"&           o O o &       - & & u ) ) v.3Xc.#.*.c 0 a B.'.'.-XXXXX'.S.V.B.p.{ f # & 2 = % & & + + ; ",
"* X   o % % & : : & X   - K - - y ` O.b.c.l.T.L v 0 u B.S.'.'. X'.'.V.k.h.w.) p 5   . 2 % % % + % + ",
"+   + O + % % + + % + # c.* . . 2 V @.@.(.c.#.) j 0 T h.B.'.'.F.V.B.k.h.w.+.M u p b X X + # : % + + ",
"+ . + + % + % & & + X = { . & & 2 @.^.x.*.o.i.Y x 3 y w.h.B.B.k.h.w.Q Q R Y j u p & X @ # X + o X + ",
"o o + + + + + %     . i u & $ % t ] X.s.+XT.@.V Y u r W w.w.w.0.W O.W T Y x j u 3 + X . # & , o % X ",
"> $ . .   .         X % & & & , i } &.s.{ /.x.b M 3 3 Y +.w.0.W R T C V n b u t < & % . $ % 9 $ & & ",
"% % X $ X X o .     & & & % % * r ) Y.&.R.' b p y 3 3 x W Q Q Q W R C n x j j , & & % % $ % : X $ % ",
"$ % % O % $ X X .   * & % : % + 4 ' s.X.Y.K p r 3 2 3 j M M M D M n n x b b 0 % & & % % % % % X + + ",
"% % $ $ % $ + X   X + + X % % : 4 ] &.' U K H 0 y 3 3 u c x M n n M L P P i % % & > 8 , , % X . & & ",
"o $ . . . . + + . X X X . . .   . { ' $.~ v b p r 2 u j b V V L ! ~ $.I 9 . . .             . . X X ",
"> , % % ; + X % 7 % X X o         t _ P J p r 3 u 0 u c V P ~ $.%.$.i + . .   .     . . .   X + + & ",
"; & % + % + % % % % % O O . . . O , a.! l t 0 0 2 u x Y ~ $.:.I w > & + + O . . . . + O . X : % + % ",
"& % & % % % % % % % X % O % . % + # J H 4 r 0 2 2 0 0 e 6 > % # ; ; + + + + % . % % % % : & % % + % ",
"      o o O o X + O & % % % : + X % 0 1 0 3 4 1 .         O O o O + X + & + + : X X % + & & + X     ",
"+ : & : < : 4 : : : + X + > 8 , % & * 9 * - - + X O X # # : + : & % + X X X & > : + % % 4 > % O o X "
};
