/* XPM */
static char *out[] = {
/* columns rows colors chars-per-pixel */
"50 50 221 2 ",
"   c None",
".  c #0D0709",
"X  c #1C0A04",
"o  c #140D0D",
"O  c #170803",
"+  c #19110F",
"@  c #17110F",
"#  c #1D1512",
"$  c #161111",
"%  c #140F10",
"&  c #240A07",
"*  c #201714",
"=  c #221916",
"-  c #291D15",
";  c #251D19",
":  c #2B1E19",
">  c #2E1B0B",
",  c #2D221D",
"<  c #33241D",
"1  c #392819",
"2  c #2E2622",
"3  c #332721",
"4  c #332A24",
"5  c #3C2C23",
"6  c #342D2A",
"7  c #392B25",
"8  c #3D3324",
"9  c #3C322C",
"0  c #383332",
"q  c #442A15",
"w  c #44311C",
"e  c #4D3A1E",
"r  c #4F3010",
"t  c #573617",
"y  c #52290E",
"u  c #662E0E",
"i  c #6C3312",
"p  c #6C3816",
"a  c #763B13",
"s  c #6A320D",
"d  c #412E24",
"f  c #443125",
"g  c #44342A",
"h  c #4A362B",
"j  c #4E3A2B",
"k  c #483828",
"l  c #523D2D",
"z  c #583B26",
"x  c #443A33",
"c  c #4C3C33",
"v  c #453A36",
"b  c #513F35",
"n  c #7D4214",
"m  c #7A4618",
"M  c #6B401F",
"N  c #4D412E",
"B  c #56412F",
"V  c #5A442C",
"C  c #574427",
"Z  c #4C4034",
"A  c #4D413A",
"S  c #554233",
"D  c #5D4936",
"F  c #53453C",
"G  c #59473B",
"H  c #5D4A3C",
"J  c #574537",
"K  c #67482D",
"L  c #78562A",
"P  c #624D3C",
"I  c #664C36",
"U  c #635337",
"Y  c #6B5535",
"T  c #63523C",
"R  c #69543B",
"E  c #6D593F",
"W  c #785936",
"Q  c #744D34",
"!  c #7C623D",
"~  c #4C4643",
"^  c #544941",
"/  c #5B4D43",
"(  c #534C4B",
")  c #5F534B",
"_  c #5B5351",
"`  c #614F42",
"'  c #655343",
"]  c #6F5A43",
"[  c #63574E",
"{  c #6C5A4A",
"}  c #6A5544",
"|  c #735E46",
" . c #715C49",
".. c #785D40",
"X. c #695E53",
"o. c #75624C",
"O. c #7A654B",
"+. c #79654A",
"@. c #6B6053",
"#. c #7D6A53",
"$. c #776558",
"%. c #756D68",
"&. c #7C7269",
"*. c #676064",
"=. c #874918",
"-. c #8D511C",
";. c #99581D",
":. c #AF5C0E",
">. c #9A601E",
",. c #A6631E",
"<. c #8B5424",
"1. c #87572A",
"2. c #9A5D21",
"3. c #995728",
"4. c #875A36",
"5. c #A15B23",
"6. c #9D6424",
"7. c #99622C",
"8. c #8B673B",
"9. c #996C37",
"0. c #A56828",
"q. c #B36C26",
"w. c #AC7429",
"e. c #B5742D",
"r. c #BA732A",
"t. c #BC7A2C",
"y. c #B37A2E",
"u. c #A46B38",
"i. c #A77637",
"p. c #B77835",
"a. c #C67611",
"s. c #C37C29",
"d. c #886C46",
"f. c #967649",
"g. c #846E54",
"h. c #816E5C",
"j. c #8C7256",
"k. c #8B745A",
"l. c #877152",
"z. c #997C57",
"x. c #956244",
"c. c #AC6943",
"v. c #AA764C",
"b. c #B57958",
"n. c #AE7D59",
"m. c #877867",
"M. c #927D62",
"N. c #907E6C",
"B. c #8A7F74",
"V. c #917E73",
"C. c #B88138",
"Z. c #DF8F1D",
"A. c #CC892D",
"S. c #C7832C",
"D. c #CB8C32",
"F. c #CE8E3B",
"G. c #C38739",
"H. c #D28F37",
"J. c #D2933B",
"K. c #D8973B",
"L. c #CE943B",
"P. c #E69821",
"I. c #EBA53A",
"U. c #ECA62E",
"Y. c #98815A",
"T. c #B38445",
"R. c #B88955",
"E. c #B9945D",
"W. c #AC8456",
"Q. c #9B8466",
"!. c #8A8077",
"~. c #948376",
"^. c #9B8974",
"/. c #A28B6D",
"(. c #A88C66",
"). c #AB9273",
"_. c #AF997A",
"`. c #B49B79",
"'. c #B99E7C",
"]. c #BF9C66",
"[. c #C58743",
"{. c #C79043",
"}. c #D59B47",
"|. c #C4955D",
" X c #CA9857",
".X c #D39E58",
"XX c #DFA756",
"oX c #DDA34C",
"OX c #ECAF4E",
"+X c #C79A65",
"@X c #C39E70",
"#X c #D5A865",
"$X c #D5AB74",
"%X c #DCB77D",
"&X c #CDAA79",
"*X c #E9B666",
"=X c #E2B472",
"-X c #E8BC76",
";X c #F6C85F",
":X c #EBC27B",
">X c #F3C475",
",X c #F7C167",
"<X c #858083",
"1X c #B6B1AA",
"2X c #C9A883",
"3X c #DBB88F",
"4X c #E4BC83",
"5X c #DDC192",
"6X c #EBC886",
"7X c #F4CD87",
"8X c #F8D287",
"9X c #EACE9C",
"0X c #F2D38F",
"qX c #E8D5A6",
"wX c #F2DCA8",
"eX c #E8DCCA",
"rX c #EAE0C6",
"tX c #F2E7D7",
"yX c #EBE0D2",
"uX c #F7F2E9",
"iX c #FBF5F0",
/* pixels */
"                                                                                                    ",
"                                                                                                    ",
"                                                                                                    ",
"                                                                                                    ",
"                ~.~.V.~.~.^.                                                                        ",
"            N.h.h.$.$.X.$.$.%.B.                                                                    ",
"          ^.$. .$.{ / A b b c [ m.                                                                  ",
"          M.| |  .{ ` A F v 9 v ~ &.                                                                ",
"        `.j.| o.P '  .` ` / / ^ b [ B.                                                              ",
"        /.j.| P T ' {  .[ ` [ / A ~ X.!.                                                            ",
"      `.k.O.} S P ' } { } G [ F / v ^ %.                                                            ",
"      /.O.} c 9 h ' ' ' ` / [ F ^ A ^ [ !.                                                          ",
"        } B , { M.o.' P G c F ~ A A x ^ m.                                                          ",
"        | R G Q.^.o.' H c G b 9 9 6 4 A &.B.                                                        ",
"          P #._.m.' P c S F x 6 2 ; ; 4 _ B.                    9XrXtXyXiXrX                    z   ",
"            `./.#.H G G F v v 9 6 ; # 2 ~ &.              p.r.-X3XuXiXeX$XW     I.I.OX,X>X8X8X8.j b ",
"            ).g.} P G c c g x 0 = , 3 4 (             l & q s.XX2XyXtX/.-.:.a.Z.P.U.OX;X>X0XwX-Xz   ",
"          `.z.} G j h d 7 9 6 2 9 6 4 ~               3.5.5.[.=X+X(.Q.I q.q.6.6.w.i.C. X:X#X+XE.    ",
"        '.Q.+.I b j d 3 < ; ; ; 2 # 0 %.              [.c.3.-X9X@XW.8.K q >                 @.      ",
"        ).j.| l l d 7 3 , ; ; # % ; *.                1.& b.wXqXR > 1 8 5                 1X        ",
"        )...I k j 3 < : : # # % $ ( <X              q.r.7.%XqXwXl.w f k                   1X        ",
"        /.} S 5 7 : ; # # % . % 0 %.              0.;.H.}.R.+.(.e V C V                             ",
"      '.z.' l d < - = = % % . % (               <.5.6.r.J.T.q e D                                   ",
"      `.g.P l f 5 < * ; % % . 6                 i ;.[.6.J.{.C e                                     ",
"      ).| D j d d : * * X o % (               -.i u. Xw. Xb.R C                                     ",
"      ).] l l f 5 : ; * = = $ _         7.<.-.s -.|.|.{.R.Q B U                                     ",
"      ).O.I j d 3 : , , ; # + v       <.n u =.=. X3Xl. X|.f.N T                                     ",
"        g.V j 5 1 < , < ; + # A     p a s a n e.-X5Xf  X|.d.8 1                                     ",
"        M.T l j d 7 3 ; # # * [   M y a s -.=.0.6X5X&X5X@XU Y W f.                                  ",
"        /. .l l f 7 3 = * # ; ( ..m u =.s ;.0.n 9.! E E k N V 8.f.                                  ",
"          o.S j d 1 < 2 2 ; : J <.=.a ,.-.,.C.,.u.1 , 1 R #.#.                                      ",
"            g.B d d d 7 7 7 1 K =.;.=.r.-.w.A.S.0.t < 8 +.#.                                        ",
"            M. .D B j 7 g c h <.;.r.s.t.;.C.D.A.S.L 1 C Y.&.                                        ",
"              ^.O.S 1 < b J z p.S.S.J.y.y.A.L.L.{.v.Y | &.@.                                        ",
"                m.{ h f I B C t.A.J.J.G.D.oXXX}.C.9.! +./ Z                                         ",
"                    $. .H j K e.A.K.}.}.XX*X>X=Xf.L d.#.N k                                         ",
"                        $.@.O.9.w.}.}.*X:X6X6X-XU L f.+.8 w                                         ",
"                            6X0X=X#X#X=X:X6X6X$XC U Y.W r t                                         ",
"                            -X4X6X&X#X%X-X:X:XY.k U Y r r                                           ",
"                              -X X  E.|.#X#XR.E 1 <                                                 ",
"                              *XoX    u.u.u.1.  X X O                                               ",
"                                H.A.                O & t 3.x.v.W.                                  ",
"                                D.s.r.u.c.                                                          ",
"                                  p.p.b.c.b.                                                        ",
"                                                                                                    ",
"                                                                                                    ",
"                                                                                                    ",
"                                                                                                    ",
"                                                                                                    ",
"                                                                                                    "
};
