/* XPM */
static char *out[] = {
/* columns rows colors chars-per-pixel */
"64 64 223 2 ",
"   c None",
".  c #361C15",
"X  c #280F0A",
"o  c #3C2419",
"O  c #2B2019",
"+  c #3B2B24",
"@  c #3D332E",
"#  c #472718",
"$  c #53331C",
"%  c #5B361E",
"&  c #593B1F",
"*  c #673719",
"=  c #713A18",
"-  c #442C22",
";  c #4A2E24",
":  c #44382E",
">  c #46352B",
",  c #5C3D24",
"<  c #573827",
"1  c #453B35",
"2  c #483C35",
"3  c #563F31",
"4  c #653C29",
"5  c #78441E",
"6  c #5C432C",
"7  c #544128",
"8  c #4D433D",
"9  c #4F4334",
"0  c #5B4434",
"q  c #51463F",
"w  c #5E4D3C",
"e  c #574534",
"r  c #694324",
"t  c #654729",
"y  c #734A28",
"u  c #76542E",
"i  c #624B35",
"p  c #624E3C",
"a  c #684934",
"s  c #724B37",
"d  c #6E5235",
"f  c #6B533B",
"g  c #64513F",
"h  c #775837",
"j  c #514741",
"k  c #544A44",
"l  c #5A4F46",
"z  c #574D48",
"x  c #594F4A",
"c  c #5C534B",
"v  c #5F5449",
"b  c #574E48",
"n  c #635444",
"m  c #6A5741",
"M  c #61564D",
"N  c #63584F",
"B  c #6C5B4C",
"V  c #6D5B45",
"C  c #735B46",
"Z  c #645A52",
"A  c #695E55",
"S  c #6A5649",
"D  c #73624C",
"F  c #7C664A",
"G  c #7A6244",
"H  c #6D6054",
"J  c #6D635B",
"K  c #746354",
"L  c #7B6A53",
"P  c #72655B",
"I  c #7A6A5C",
"U  c #786656",
"Y  c #756C63",
"T  c #796D64",
"R  c #7D726A",
"E  c #7E7367",
"W  c #6E6560",
"Q  c #84481E",
"!  c #9E5C1F",
"~  c #8A4D22",
"^  c #895725",
"/  c #925524",
"(  c #935D29",
")  c #975C28",
"_  c #875A36",
"`  c #A75F27",
"'  c #9B642E",
"]  c #976529",
"[  c #836339",
"{  c #8A6637",
"}  c #96673A",
"|  c #966933",
" . c #A2652D",
".. c #AA672A",
"X. c #A76C34",
"o. c #B36F32",
"O. c #AD7B34",
"+. c #AA7637",
"@. c #B57433",
"#. c #B77A36",
"$. c #B2742D",
"%. c #825A41",
"&. c #856B4B",
"*. c #926B43",
"=. c #9E6644",
"-. c #997748",
";. c #846E53",
":. c #886C54",
">. c #976457",
",. c #8B745A",
"<. c #88755C",
"1. c #977855",
"2. c #A87D47",
"3. c #A37856",
"4. c #AE7251",
"5. c #817365",
"6. c #82766E",
"7. c #84786D",
"8. c #8E7863",
"9. c #967B64",
"0. c #857A72",
"q. c #8A7E75",
"w. c #887E7A",
"e. c #AD7763",
"r. c #B4813B",
"t. c #C38B3B",
"y. c #C48838",
"u. c #C9943D",
"i. c #DB9133",
"p. c #E1912F",
"a. c #D5A03E",
"s. c #E8A23D",
"d. c #9D8259",
"f. c #AB8449",
"g. c #B88948",
"h. c #A4865D",
"j. c #A98756",
"k. c #B8945A",
"l. c #BC9241",
"z. c #998266",
"x. c #8D837A",
"c. c #8E8276",
"v. c #91867C",
"b. c #93897E",
"n. c #958974",
"m. c #A78C69",
"M. c #AA936B",
"N. c #B59865",
"B. c #AB8C75",
"V. c #A99576",
"C. c #B49B78",
"Z. c #BFA57D",
"A. c #C68944",
"S. c #C89645",
"D. c #D19E44",
"F. c #D89B49",
"G. c #C69959",
"H. c #D39950",
"J. c #D6A347",
"K. c #D7A856",
"L. c #D6AD55",
"P. c #EBB84D",
"I. c #F1BC4A",
"U. c #E2B35B",
"Y. c #E6AC4D",
"T. c #C49A62",
"R. c #CBA366",
"E. c #D6A963",
"W. c #D9B26B",
"Q. c #C7A977",
"!. c #D5B47E",
"~. c #E4BC75",
"^. c #F0C74E",
"/. c #F4D263",
"(. c #E8C975",
"). c #958A82",
"_. c #9A8E85",
"`. c #9D9186",
"'. c #9C928A",
"]. c #A1958B",
"[. c #A79A8D",
"{. c #A59C93",
"}. c #A99E95",
"|. c #BFAA8A",
" X c #ABA196",
".X c #ACA39A",
"XX c #B3A89B",
"oX c #B5ABA2",
"OX c #BAAEA3",
"+X c #BDB3AA",
"@X c #BFBCB2",
"#X c #C3AC85",
"$X c #CCB28A",
"%X c #CBB085",
"&X c #D5B785",
"*X c #CBB796",
"=X c #D5BC96",
"-X c #E2BF88",
";X c #C5B9AC",
":X c #C4BCB2",
">X c #D0B9A7",
",X c #DCC59C",
"<X c #DBC492",
"1X c #E4C28B",
"2X c #F3DD87",
"3X c #E8CA97",
"4X c #E7D19D",
"5X c #DAC6A4",
"6X c #CBC2B6",
"7X c #CCC4BA",
"8X c #D5CABA",
"9X c #DED1B8",
"0X c #E2CAA2",
"qX c #E8CDA2",
"wX c #E9D4A9",
"eX c #EAD7B6",
"rX c #F2DDB5",
"tX c #D5CDC3",
"yX c #D8CFC7",
"uX c #DED5C7",
"iX c #E0D7C2",
"pX c #EFE1C5",
"aX c #F7E5C6",
/* pixels */
"                                                                                                                                ",
"                                                                                                                                ",
"                                                                                                                                ",
"                                                                                                                                ",
"                                                                                                                                ",
"                                                                                                                                ",
"                                                                                                                                ",
"                                                                                                                                ",
"                                                                                                                                ",
"                                                                                                                                ",
"                                                                                                                                ",
"                                                                                                                                ",
"                                                                                                                                ",
"                                                                                                .X{.}.OXXX+X;X7X6X              ",
"                                                                                            .X.X).0.0.0.q.]. XOX;X7X7X          ",
"                                      H.U.                                              +X.X'._.x.q.q.0.7.b.b.]. X+XOX:X        ",
"                        o d uX5X~.E.o.@.`                                             @X.X`.x.v.v.v.x.).).0.0.b.{.{. X X+X      ",
"                        >X8XiXQ.G.*.-.0XT.y.#.| g.                                  XXXX_.7.R R 6.6.)._.).).b.x.`.'.[.`.OX      ",
"                      &X=XrX&XG.&X4 [.aX>X=.. X o                                   oXb.6.P J J J R x.x.).b.x.x.c.`.'.[.{.8X    ",
"    > 0 -       ^.^.P.L.H.F.A.T.5XeXaXrXOX1.y 3 <                                 ].b.P Z Z J J Y R 0.w.w.x.b.R E x.b.b.`.;X    ",
"    o # ; h 2X/.^.P.J.u.y.p.p.H.%XeXrX9X].:.Q.B.m.                                ].T N k c Z J J R R c.).'.x.Y c Z A P c.XX6X  ",
"    h _ *.k.(.U.S.l.r.( ~ / ..$.} ,.B.8.i H ,XwX                                  x.J l N c c H Z Y R x.{.{.'.0.N c P 5.0.`.XX  ",
"        t { f.-.[         * , % $ # # # . : *X*XwX                                _.P 8 N Z Z Z c J Y x.'.{.+XoXw.8 q T 6.P n.  ",
"        9 9 ;.                6 % < < # - A *X#X*XqX                                P j j x Z c J R R v.).{.@XyX    A q.q.K     ",
"          P [.                      ; . o i 9.9.C.&X                                W 8 1 1 z c J 6.w.)._.}.+XtX    v.E J T     ",
"              7X                    ; # - ; 4 h u } X.                                j 1 @ 8 z J Y 0.).'.}.+XtX      J E       ",
"                                    n 0 9.B.%.$ . < } / 2.                            W 1 1 1 j A P R 6._.{.+XtX                ",
"                                    B B e.>.e.%.$ i m.3.( =.                          T j 8 1 j z A W Y 6.'.oXtX                ",
"                                    P I ,._ < *.y z.%Xk.4 5 ..`                         x k 2 2 k N P J R ).}.:X                ",
"                                    I n.%X=.s 2.2.1X4XT.$ * Q 5 ` ..#.                  M z k k z M Z Y 5.v.}.OX7X              ",
"                                    7.V.Q._ 6 &.k.3XqX!.r ( Q = ~ / ~ #.                Z z z k k c T w.x.w._.;XtX              ",
"                                    7.*Xm.&.z.M.Z.1XrX1Xr ] ~ * /  .Q o...A.          Y c j k x z A R w.v.w.].+XyX              ",
"                                  n.|.C.M.C.m ,.C.#X5X<X& ] 5 5  .o./ ' X.@.A.      J v b b b N N Z Y R _.).].oXtX              ",
"                                  V.8.B.$XB.n > g L m.M.& ] ] 5 +.t.' ( #.' g.  XXP c b b H Z W Y Z Z R w.'.}.oX:X              ",
"                                L w   9.8.,.B p e d 6 o & X.+.y X.y.#.] r.r.A.T.z.v q q j N J J J J k Z W _.oX@X7X              ",
"                                      9.U K H V n h d + t } +.' r.y.y.#.+.S.g.g.&.v q q 8 b Z J Y Y W Y 6.).oX7X                ",
"                                        7.H P K B B C p w -.f.2.r.u.r.u.O.u.J.l.d.w l q j j Z A R c.R R x.x..XtX                ",
"                                          5.P U H K K C g 1.f.f.g.S.u.a.u.t.a.D.f.w N Z k 8 c J R R )._.'.'.{.tX                ",
"                                            P H U K K V S F h.j.N.E.R.H.K.K.D.D.f.e Z J c Z Z J R x.x.R )..X+X                  ",
"                                          C 9 B K U P B D F d.1.m.Q.1X1X~.W.L.S.f.9 8 k c c Z c W R R Y R oX@X                  ",
"                                          G 9 0 H I I K K L ;.G G C.,XqX4X1XW.G.f.9 + : k J c N Z Z W w.}.+X                    ",
"                                        k.[ d 0 w I U T U L ;.V w ,.=X0XwX0X<XZ.h.9 @ q q 8 1 q Z J x.'..X                      ",
"                                        g.{ u d a p K I I I L D m m |.<X,X,X<XQ.M.L 9 9 j 8 k 8 j R '.                          ",
"                                          ^ y u d a C 5.I I U D D e L Q.&X<XQ.N.d.z.l : Y Z Y R W R                             ",
"                                              r r 4 , F I U B n p 9 i d.j.j.-.[ 7 : d.z.n.                                      ",
"                                                # # # d   P N n         h t 7 #   O V 1X4X                                      ",
"                                                  & & < f                           h (.2X                                      ",
"                                                  6 < 6 V                             U./.                                      ",
"                                                i 6 e                                 U.I.                                      ",
"                                            ] ^ t                                       s.Y.                                    ",
"                                >.4.      | ] ^                                         i.s.                                    ",
"                              >.>.< _ ' ( ( ^                                         %.=.g.A.                                  ",
"                                                                                      . a m                                     ",
"                                                                                                                                ",
"                                                                                                                                ",
"                                                                                                                                ",
"                                                                                                                                ",
"                                                                                                                                ",
"                                                                                                                                ",
"                                                                                                                                ",
"                                                                                                                                ",
"                                                                                                                                ",
"                                                                                                                                ",
"                                                                                                                                "
};
