/* XPM */
static char *out[] = {
/* columns rows colors chars-per-pixel */
"50 50 226 2 ",
"   c None",
".  c #00355C",
"X  c #013A5B",
"o  c #003664",
"O  c #003B64",
"+  c #003D6B",
"@  c #003F71",
"#  c #014263",
"$  c #00436C",
"%  c #08486A",
"&  c #154F6D",
"*  c #004473",
"=  c #004A75",
"-  c #0A4C73",
";  c #00457B",
":  c #014C7B",
">  c #0B4771",
",  c #01547E",
"<  c #0F527C",
"1  c #175479",
"2  c #235A7B",
"3  c #325E7B",
"4  c #36637B",
"5  c #2E607D",
"6  c #466A7D",
"7  c #014580",
"8  c #004B84",
"9  c #004C8B",
"0  c #01478B",
"q  c #015383",
"w  c #005A86",
"e  c #00538B",
"r  c #015A8C",
"t  c #0D5E8B",
"y  c #165C86",
"u  c #004C92",
"i  c #005593",
"p  c #005D93",
"a  c #00559A",
"s  c #005D9B",
"d  c #255F83",
"f  c #07628E",
"g  c #006294",
"h  c #00639C",
"j  c #00699E",
"k  c #186A98",
"l  c #0D759D",
"z  c #136D94",
"x  c #2A6587",
"c  c #366B8D",
"v  c #3E6E89",
"b  c #256896",
"n  c #347090",
"m  c #0052A2",
"M  c #015BA4",
"N  c #0054A9",
"B  c #005CB3",
"V  c #015BB8",
"C  c #004FA0",
"Z  c #0164A2",
"A  c #006CA4",
"S  c #0065AB",
"D  c #016DAA",
"F  c #0170A4",
"G  c #0073AC",
"H  c #0878A8",
"J  c #016DB4",
"K  c #0166B9",
"L  c #0173B3",
"P  c #0079B4",
"I  c #0075BA",
"U  c #007CBB",
"Y  c #097BB4",
"T  c #1C74A5",
"R  c #45738D",
"E  c #4A7692",
"W  c #477D9C",
"Q  c #5D7A8F",
"!  c #437CA3",
"~  c #0166C2",
"^  c #006DCA",
"/  c #0173C3",
"(  c #017CC6",
")  c #0175CC",
"_  c #017BCD",
"`  c #0175D3",
"'  c #027CD5",
"]  c #028DB4",
"[  c #0181BC",
"{  c #0489BB",
"}  c #0193BD",
"|  c #0480A6",
" . c #3A82A2",
".. c #5B849D",
"X. c #4B809E",
"o. c #61849A",
"O. c #738A9B",
"+. c #4985A9",
"@. c #5886A5",
"#. c #4D8BB5",
"$. c #588DB4",
"%. c #4893B7",
"&. c #5798BB",
"*. c #5C90AB",
"=. c #668BA4",
"-. c #6891AA",
";. c #7A98AB",
":. c #6697B6",
">. c #6995B2",
",. c #6B9ABC",
"<. c #6B9AB6",
"1. c #729AB8",
"2. c #748FA7",
"3. c #75A1BD",
"4. c #0183C3",
"5. c #0089C7",
"6. c #0085CB",
"7. c #008CCB",
"8. c #0C89C2",
"9. c #0296C8",
"0. c #0184D4",
"q. c #018BD5",
"w. c #018CDA",
"e. c #0083D9",
"r. c #0194D3",
"t. c #0094DD",
"y. c #019ADC",
"u. c #019CD6",
"i. c #00A0DD",
"p. c #01A9DE",
"a. c #22A5DA",
"s. c #019AE4",
"d. c #0195E6",
"f. c #029AF6",
"g. c #0087E4",
"h. c #00A3E3",
"j. c #01AAE6",
"k. c #01A4EC",
"l. c #01ACEA",
"z. c #02B2E3",
"x. c #01B3EB",
"c. c #01B9E8",
"v. c #00ACF3",
"b. c #00A1F2",
"n. c #00B4F2",
"m. c #00BBF3",
"M. c #649CC3",
"N. c #709DC2",
"B. c #4EACD1",
"V. c #69A5C6",
"C. c #77AACB",
"Z. c #69B6D5",
"A. c #00C6EC",
"S. c #01CBFA",
"D. c #00C6F5",
"F. c #00D3F6",
"G. c #01D1EF",
"H. c #86A6BB",
"J. c #86A6B9",
"K. c #9AB0BE",
"L. c #A6B8BE",
"P. c #83ACC8",
"I. c #84B2CD",
"U. c #8CB3CB",
"Y. c #91B4CA",
"T. c #97B7CC",
"R. c #89BAD3",
"E. c #95BBD3",
"W. c #9BBED3",
"Q. c #91B6D5",
"!. c #A7BCC9",
"~. c #88C3DA",
"^. c #96C9DC",
"/. c #9BCBDB",
"(. c #9EC2D8",
"). c #AAC3D4",
"_. c #A5C5D9",
"`. c #A4CEDD",
"'. c #A9C7D9",
"]. c #B2CDDD",
"[. c #B5C9D4",
"{. c #A7D2DF",
"}. c #B6D1DE",
"|. c #BBD1DD",
" X c #99D0E2",
".X c #ADCDE2",
"XX c #A4D3E4",
"oX c #ABD4E3",
"OX c #ADDAE8",
"+X c #BDD5E2",
"@X c #B4D9E5",
"#X c #BADAE5",
"$X c #BCDDE9",
"%X c #B4D7E6",
"&X c #B3CFE4",
"*X c #BFE1EA",
"=X c #C3CED6",
"-X c #C9D7DE",
";X c #D2D9DF",
":X c #C3DCE5",
">X c #CCDEE6",
",X c #C0DEE9",
"<X c #C8DCE7",
"1X c #D3DEE2",
"2X c #CAE3EC",
"3X c #C7E2E9",
"4X c #D2E5EC",
"5X c #DAE5EB",
"6X c #DBEAEE",
"7X c #D9E5EA",
"8X c #D5EAF1",
"9X c #DDECF2",
"0X c #D1E7F0",
"qX c #CBE6F0",
"wX c #E5EDEF",
"eX c #E3EEF2",
"rX c #EAEFF1",
"tX c #E4F2F5",
"yX c #EBF3F5",
"uX c #ECF6F9",
"iX c #EEF8F9",
"pX c #F2F6F7",
"aX c #F2F7F9",
"sX c #F4FAFA",
"dX c #FCFEFD",
"fX c #F1F8F7",
/* pixels */
"                                                                                                    ",
"                                                                                                    ",
"                                                                                                    ",
"                                                                                                    ",
"                                                                                                    ",
"                                                                                                    ",
"                                                                                                    ",
"                                                                                                    ",
"                                                                                                    ",
"                                                                                                    ",
"                                                                                                    ",
"fXdXdXdXoX~.H.9XdXdXsXtXyX0XdXiXoXpX9XOXiXiXoXtXiXdXsXyXsXdXdXdXdXdXiXOX XsXdXdXtXXX~.tXdXdXsXdXdXtX",
"sXdXdXyX$X^.E -XdXdXsXpXtX#XwXoXqXyX3X X0XsXdXyXdXdXtX9XfXdXdXdXdXdXyXXX^.tXdXsXiXyX;.oX3X8XuXsXdXiX",
"uXeX9X9XtX:X-...tXtX8XyX6X@X6X#X2XrX$XoX2XwXuX8X7XeXoXoX9XsXdXdXdXaX9X@XOX8XaX9XyXsXH.#X3XoX8XiXiXyX",
"yXW.I.+XeX4X<.5 '.+X4XeX2XR.2X3X9XeX0X2X8X/.2X6XH.Y.oX#X#XpXuXtXyXtX8X<X].+X:X7XrXrXJ.2X6X/.#XsX9X6X",
"W.M.x n Q.W.[...v <.N.].3.3.].eXQ.C.].2X&XR.R.'.W '.,XW._.>X6XyXyX4X'.Y.7X2.;X*.'.|.R Y.3X XV.(.W.6X",
"*.n q , < x <.< = % 5 <.- - #.&.!  .&.%.#.&.#.+.@.R.(.3.X.|.(.P.Q.*.2 1 :.2 x $ 2 1 % % +.P.C.3.c P.",
"7X[.H F g g f g f , = = , w r t j H ] ] } ] ] | l l l l j T b f y w r r g g f w , , w w w y y t f z ",
").%.[ [ | G A j f r r p h h h A P 5.r.i.j.h.u.9.9.} ] { 5.5.P G A S G S A A j i r p g g g p r j G P ",
"8.4.[ P G F j h p r i p h S L U 4.q.y.k.v.n.n.x.z.c.z.z.j.i.r.5.4.U P L G A Z s s p h Z A D L P [ [ ",
"5.5.P P D j h g p e i s M J U 4.5.7.t.d.k.v.x.x.A.G.F.F.A.x.i.u.u.7.6.I G S Z h s s g j A D P [ 5.7.",
"[ U G G A p e e e 8 e a M J / / ( _ 6.0.d.s.j.z.A.S.F.S.S.m.l.y.r.4.4.Y Z j s s i i i i h j F P [ 4.",
"U P G F h p e 9 e 9 i a M S / _ _ _ _ _ 0.w.s.h.c.D.S.S.S.m.x.p.u.r.5.I A Z s i i i e e p h A P P [ ",
"P P F j g r q 8 8 9 9 i M S / ` ' ` ) ) ) _ q.s.j.m.D.S.D.m.z.p.u.r.5.U D s i 9 9 8 9 q e g j G P P ",
"G A j g r q 8 8 0 9 e i h D I ) ` ` ^ ^ ^ ) ' q.s.j.n.n.n.j.h.i.u.7.[ L j i e 8 7 8 8 8 w r g j F G ",
"j j g r q : ; * 7 0 8 e s Z J / ^ ^ ~ ~ K ~ / ) q.t.s.h.h.s.t.w.q.( I S s e 8 7 ; ; * * : q r g j j ",
"r r r , : * * $ @ @ : 8 e p Z S K B V V V B K I ( 6.q.q.t.s.w.0.) K S a e : ; ; @ + $ * = : q e r g ",
"q q : = * $ + o + @ * ; : w i s a m C C C m N S J I _ q.q.w.e._ ~ B a u ; * + o o + O + $ * = , q q ",
"= = * $ $ + O o o O + + * * : 8 8 0 0 0 0 9 i s S J / 0.0.w.e.) K N 0 @ @ + o . . . . . O + $ * = ; ",
": : : * * $ + O O + + * $ = : 8 9 9 u i 9 9 i s Z L 4.r.s.k.k.w.^ B u 7 * O O X O O O $ % * ; ; : = ",
"> * * $ $ $ O X X O O $ * $ * * 8 ; 7 8 8 q e p Z L 4.q.d.v.f.g.^ B u @ + O X . . X X O # * * ; : - ",
").< = = ; , = $ $ $ $ = = = = ; 8 8 ; 8 e q q p Z L 7.u.d.f.f.s.) N 0 ; $ . X X X X X O O $ = c <.! ",
"3.1 - < x =.1 2 % # E & 1 c 1 1 1 - 7 8 e w k b T H Y { a.B.a.0.K M e ; % $ # X % % # % # $ 1 E !.7X",
"V.P.& J.=XQ 3.N.! R L.O.1.%X+XM.N.M.@.% 2 :.R.W.U.W.<.N.1.-X,.#.$.b * # # X 4 >.$.X.2.X X E :.U.2.).",
"eXQ.W 6 ..U.'.<X].C.o...+XeX4X8X<XE.=.3 ,.R.Z.iXaX2X+X<XH.:.R.C.E.P.1.c 4 =.U.(.3X-X[.[.+X`.2X#X:X+X",
"sXpXW.!.W..XrXeX|.E.+.=.6XeXyXeX,X#XV.I.`.~./.tXaXsXtXdX5X'.2X#X`.>XB.].}.#XtXsXrXrXyXsXsX2X9XtXuXsX",
"dXdXsX<X+X2XeX,XY.Q Q =.:XeXaXuXyXqX$X$X%X/.#X4XtXdXsXdXsXsXaXeX#X#X3X8X3X{.fXdXyX6XsXdXdX=X-XwXpXdX",
"sXsXdXsXyXdXsX:X2.O..XH.$XaXdXdXdXfX%XXX#X9X4X4XaXdXdXdXyXfXsXuX4X^.*X0X@X/.4X9XoXeXsXdXdX6X;XrXdXsX",
"yXuXfXyX8XfXyX/.'.6X9XK.2XsXdXdXdXsX{.~.8XdXsX2XtXdXdXdX8X9XyXtX#XoX4XsXoX3X`.6X`.pXdXdXdXyXwXpXdXaX",
"                                                                                                    ",
"                                                                                                    ",
"                                                                                                    ",
"                                                                                                    ",
"                                                                                                    ",
"                                                                                                    ",
"                                                                                                    ",
"                                                                                                    ",
"                                                                                                    ",
"                                                                                                    ",
"                                                                                                    "
};
